<svg xmlns="http://www.w3.org/2000/svg" viewBox="0 0 800 540" role="img" aria-labelledby="title2"><title id="title2">問2 三角グラフの読み方の図解</title><defs><marker id="arrow2" markerWidth="8" markerHeight="8" refX="7" refY="4" orient="auto"><path d="M0 0 L8 4 L0 8 Z" fill="#2563a6"/></marker></defs><g font-family="Meiryo, Yu Gothic, sans-serif"><rect x="0" y="0" width="800" height="540" rx="0" fill="#fbfdff" stroke="none" stroke-width="2"/><text x="24" y="38" font-size="25" fill="#16324f" text-anchor="start" font-weight="700">問2  三角グラフの読み方</text><path d="M165 420 L390 95 L615 420 Z" fill="#fff" stroke="#2563a6" stroke-width="3"/><line x1="265" y1="355" x2="227.82" y2="329.26" stroke="#2563a6" stroke-width="4"/><circle cx="227.82" cy="329.26" r="5" fill="white" stroke="#2563a6" stroke-width="3"/><line x1="265" y1="355" x2="471.18" y2="212.26" stroke="#087f68" stroke-width="4"/><circle cx="471.18" cy="212.26" r="5" fill="white" stroke="#087f68" stroke-width="3"/><line x1="265" y1="355" x2="265.0" y2="420.0" stroke="#b33b44" stroke-width="4"/><circle cx="265.0" cy="420.0" r="5" fill="white" stroke="#b33b44" stroke-width="3"/><circle cx="265" cy="355" r="7" fill="#16324f" stroke="#16324f" stroke-width="3"/><text x="245" y="342" font-size="26" fill="#16324f" text-anchor="start" font-weight="700">B</text><text x="80" y="235" font-size="21" fill="#16324f" text-anchor="start" font-weight="400">ワープロ</text><text x="550" y="235" font-size="21" fill="#087f68" text-anchor="start" font-weight="400">表計算</text><text x="380" y="453" font-size="21" fill="#16324f" text-anchor="middle" font-weight="400">データベース</text><text x="535" y="319" font-size="22" fill="#087f68" text-anchor="start" font-weight="400">最も長い</text><text x="400" y="76" font-size="18" fill="#16324f" text-anchor="middle" font-weight="400">配置を見やすくした模式図</text><rect x="20" y="476" width="760" height="48" rx="8" fill="#dcf3e9" stroke="#087f68" stroke-width="2"/><text x="400" y="508" font-size="22" fill="#087f68" text-anchor="middle" font-weight="700">辺への垂直距離が割合。Bは表計算が最大</text></g></svg>