<svg xmlns="http://www.w3.org/2000/svg" viewBox="0 0 800 580" role="img" aria-labelledby="title19"><title id="title19">問19 第3正規形への分解の図解</title><defs><marker id="arrow19" markerWidth="8" markerHeight="8" refX="7" refY="4" orient="auto"><path d="M0 0 L8 4 L0 8 Z" fill="#2563a6"/></marker></defs><g font-family="Meiryo, Yu Gothic, sans-serif"><rect x="0" y="0" width="800" height="580" rx="0" fill="#fbfdff" stroke="none" stroke-width="2"/><text x="24" y="38" font-size="25" fill="#16324f" text-anchor="start" font-weight="700">問19  第3正規形への分解</text><rect x="25" y="82" width="125" height="44" rx="0" fill="#2563a6" stroke="#b7c9dc" stroke-width="2"/><text x="87.5" y="112.0" font-size="20" fill="#fff" text-anchor="middle" font-weight="400">従業員番号</text><rect x="150" y="82" width="155" height="44" rx="0" fill="#2563a6" stroke="#b7c9dc" stroke-width="2"/><text x="227.5" y="112.0" font-size="20" fill="#fff" text-anchor="middle" font-weight="400">氏名</text><rect x="25" y="126" width="125" height="44" rx="0" fill="#dcf3e9" stroke="#b7c9dc" stroke-width="2"/><text x="87.5" y="156.0" font-size="20" fill="#16324f" text-anchor="middle" font-weight="400">101</text><rect x="150" y="126" width="155" height="44" rx="0" fill="#dcf3e9" stroke="#b7c9dc" stroke-width="2"/><text x="227.5" y="156.0" font-size="20" fill="#16324f" text-anchor="middle" font-weight="400">佐藤</text><rect x="25" y="170" width="125" height="44" rx="0" fill="#edf4fb" stroke="#b7c9dc" stroke-width="2"/><text x="87.5" y="200.0" font-size="20" fill="#16324f" text-anchor="middle" font-weight="400">102</text><rect x="150" y="170" width="155" height="44" rx="0" fill="#edf4fb" stroke="#b7c9dc" stroke-width="2"/><text x="227.5" y="200.0" font-size="20" fill="#16324f" text-anchor="middle" font-weight="400">鈴木</text><rect x="455" y="82" width="150" height="44" rx="0" fill="#2563a6" stroke="#b7c9dc" stroke-width="2"/><text x="530.0" y="112.0" font-size="20" fill="#fff" text-anchor="middle" font-weight="400">技能コード</text><rect x="605" y="82" width="170" height="44" rx="0" fill="#2563a6" stroke="#b7c9dc" stroke-width="2"/><text x="690.0" y="112.0" font-size="20" fill="#fff" text-anchor="middle" font-weight="400">技能名</text><rect x="455" y="126" width="150" height="44" rx="0" fill="#dcf3e9" stroke="#b7c9dc" stroke-width="2"/><text x="530.0" y="156.0" font-size="20" fill="#16324f" text-anchor="middle" font-weight="400">S1</text><rect x="605" y="126" width="170" height="44" rx="0" fill="#dcf3e9" stroke="#b7c9dc" stroke-width="2"/><text x="690.0" y="156.0" font-size="20" fill="#16324f" text-anchor="middle" font-weight="400">Java</text><rect x="455" y="170" width="150" height="44" rx="0" fill="#edf4fb" stroke="#b7c9dc" stroke-width="2"/><text x="530.0" y="200.0" font-size="20" fill="#16324f" text-anchor="middle" font-weight="400">S2</text><rect x="605" y="170" width="170" height="44" rx="0" fill="#edf4fb" stroke="#b7c9dc" stroke-width="2"/><text x="690.0" y="200.0" font-size="20" fill="#16324f" text-anchor="middle" font-weight="400">SQL</text><line x1="150" y1="214" x2="270" y2="282" stroke="#2563a6" stroke-width="3" marker-end="url(#arrow19)"/><line x1="535" y1="214" x2="470" y2="282" stroke="#2563a6" stroke-width="3" marker-end="url(#arrow19)"/><rect x="125" y="290" width="180" height="44" rx="0" fill="#2563a6" stroke="#b7c9dc" stroke-width="2"/><text x="215.0" y="320.0" font-size="20" fill="#fff" text-anchor="middle" font-weight="400">従業員番号</text><rect x="305" y="290" width="180" height="44" rx="0" fill="#2563a6" stroke="#b7c9dc" stroke-width="2"/><text x="395.0" y="320.0" font-size="20" fill="#fff" text-anchor="middle" font-weight="400">技能コード</text><rect x="485" y="290" width="190" height="44" rx="0" fill="#2563a6" stroke="#b7c9dc" stroke-width="2"/><text x="580.0" y="320.0" font-size="20" fill="#fff" text-anchor="middle" font-weight="400">経験年数</text><rect x="125" y="334" width="180" height="44" rx="0" fill="#dcf3e9" stroke="#b7c9dc" stroke-width="2"/><text x="215.0" y="364.0" font-size="20" fill="#16324f" text-anchor="middle" font-weight="400">101</text><rect x="305" y="334" width="180" height="44" rx="0" fill="#dcf3e9" stroke="#b7c9dc" stroke-width="2"/><text x="395.0" y="364.0" font-size="20" fill="#16324f" text-anchor="middle" font-weight="400">S1</text><rect x="485" y="334" width="190" height="44" rx="0" fill="#dcf3e9" stroke="#b7c9dc" stroke-width="2"/><text x="580.0" y="364.0" font-size="20" fill="#16324f" text-anchor="middle" font-weight="400">3</text><rect x="125" y="378" width="180" height="44" rx="0" fill="#dcf3e9" stroke="#b7c9dc" stroke-width="2"/><text x="215.0" y="408.0" font-size="20" fill="#16324f" text-anchor="middle" font-weight="400">101</text><rect x="305" y="378" width="180" height="44" rx="0" fill="#dcf3e9" stroke="#b7c9dc" stroke-width="2"/><text x="395.0" y="408.0" font-size="20" fill="#16324f" text-anchor="middle" font-weight="400">S2</text><rect x="485" y="378" width="190" height="44" rx="0" fill="#dcf3e9" stroke="#b7c9dc" stroke-width="2"/><text x="580.0" y="408.0" font-size="20" fill="#16324f" text-anchor="middle" font-weight="400">1</text><rect x="125" y="422" width="180" height="44" rx="0" fill="#fff" stroke="#b7c9dc" stroke-width="2"/><text x="215.0" y="452.0" font-size="20" fill="#16324f" text-anchor="middle" font-weight="400">102</text><rect x="305" y="422" width="180" height="44" rx="0" fill="#fff" stroke="#b7c9dc" stroke-width="2"/><text x="395.0" y="452.0" font-size="20" fill="#16324f" text-anchor="middle" font-weight="400">S1</text><rect x="485" y="422" width="190" height="44" rx="0" fill="#fff" stroke="#b7c9dc" stroke-width="2"/><text x="580.0" y="452.0" font-size="20" fill="#16324f" text-anchor="middle" font-weight="400">5</text><text x="400" y="509" font-size="23" fill="#16324f" text-anchor="middle" font-weight="400">経験年数は「従業員＋技能」の組で決まる</text><rect x="20" y="516" width="760" height="48" rx="8" fill="#dcf3e9" stroke="#087f68" stroke-width="2"/><text x="400" y="548" font-size="22" fill="#087f68" text-anchor="middle" font-weight="700">氏名と技能名はそれぞれ一度保存。経験年数は中間表へ</text></g></svg>