<svg xmlns="http://www.w3.org/2000/svg" viewBox="0 0 800 430" role="img" aria-labelledby="title22"><title id="title22">問22 外部キーの図解</title><defs><marker id="arrow22" markerWidth="8" markerHeight="8" refX="7" refY="4" orient="auto"><path d="M0 0 L8 4 L0 8 Z" fill="#2563a6"/></marker></defs><g font-family="Meiryo, Yu Gothic, sans-serif"><rect x="0" y="0" width="800" height="430" rx="0" fill="#fbfdff" stroke="none" stroke-width="2"/><text x="24" y="38" font-size="25" fill="#16324f" text-anchor="start" font-weight="700">問22  外部キー</text><rect x="35" y="80" width="160" height="44" rx="0" fill="#2563a6" stroke="#b7c9dc" stroke-width="2"/><text x="115.0" y="110.0" font-size="20" fill="#fff" text-anchor="middle" font-weight="400">社員</text><rect x="195" y="80" width="170" height="44" rx="0" fill="#2563a6" stroke="#b7c9dc" stroke-width="2"/><text x="280.0" y="110.0" font-size="20" fill="#fff" text-anchor="middle" font-weight="400">部門番号</text><rect x="35" y="124" width="160" height="44" rx="0" fill="#fff" stroke="#b7c9dc" stroke-width="2"/><text x="115.0" y="154.0" font-size="20" fill="#16324f" text-anchor="middle" font-weight="400">佐藤</text><rect x="195" y="124" width="170" height="44" rx="0" fill="#fff" stroke="#b7c9dc" stroke-width="2"/><text x="280.0" y="154.0" font-size="20" fill="#16324f" text-anchor="middle" font-weight="400">10</text><rect x="35" y="168" width="160" height="44" rx="0" fill="#edf4fb" stroke="#b7c9dc" stroke-width="2"/><text x="115.0" y="198.0" font-size="20" fill="#16324f" text-anchor="middle" font-weight="400">鈴木</text><rect x="195" y="168" width="170" height="44" rx="0" fill="#edf4fb" stroke="#b7c9dc" stroke-width="2"/><text x="280.0" y="198.0" font-size="20" fill="#16324f" text-anchor="middle" font-weight="400">99</text><rect x="465" y="80" width="130" height="44" rx="0" fill="#2563a6" stroke="#b7c9dc" stroke-width="2"/><text x="530.0" y="110.0" font-size="20" fill="#fff" text-anchor="middle" font-weight="400">部門番号</text><rect x="595" y="80" width="150" height="44" rx="0" fill="#2563a6" stroke="#b7c9dc" stroke-width="2"/><text x="670.0" y="110.0" font-size="20" fill="#fff" text-anchor="middle" font-weight="400">部門名</text><rect x="465" y="124" width="130" height="44" rx="0" fill="#fff" stroke="#b7c9dc" stroke-width="2"/><text x="530.0" y="154.0" font-size="20" fill="#16324f" text-anchor="middle" font-weight="400">10</text><rect x="595" y="124" width="150" height="44" rx="0" fill="#fff" stroke="#b7c9dc" stroke-width="2"/><text x="670.0" y="154.0" font-size="20" fill="#16324f" text-anchor="middle" font-weight="400">営業</text><rect x="465" y="168" width="130" height="44" rx="0" fill="#edf4fb" stroke="#b7c9dc" stroke-width="2"/><text x="530.0" y="198.0" font-size="20" fill="#16324f" text-anchor="middle" font-weight="400">20</text><rect x="595" y="168" width="150" height="44" rx="0" fill="#edf4fb" stroke="#b7c9dc" stroke-width="2"/><text x="670.0" y="198.0" font-size="20" fill="#16324f" text-anchor="middle" font-weight="400">開発</text><line x1="365" y1="146" x2="460" y2="146" stroke="#087f68" stroke-width="3" marker-end="url(#arrow22)"/><line x1="365" y1="192" x2="460" y2="245" stroke="#b33b44" stroke-width="3" stroke-dasharray="7 5"/><text x="400" y="280" font-size="23" fill="#087f68" text-anchor="middle" font-weight="400">10は存在 → 登録可</text><text x="400" y="326" font-size="23" fill="#b33b44" text-anchor="middle" font-weight="400">99は存在しない → 制約違反</text><rect x="20" y="366" width="760" height="48" rx="8" fill="#dcf3e9" stroke="#087f68" stroke-width="2"/><text x="400" y="398" font-size="22" fill="#087f68" text-anchor="middle" font-weight="700">外部キーは「存在する参照先」を保証する</text></g></svg>