<svg xmlns="http://www.w3.org/2000/svg" viewBox="0 0 800 395" role="img" aria-labelledby="title23"><title id="title23">問23 サブネットマスクのビット列の図解</title><defs><marker id="arrow23" markerWidth="8" markerHeight="8" refX="7" refY="4" orient="auto"><path d="M0 0 L8 4 L0 8 Z" fill="#2563a6"/></marker></defs><g font-family="Meiryo, Yu Gothic, sans-serif"><rect x="0" y="0" width="800" height="395" rx="0" fill="#fbfdff" stroke="none" stroke-width="2"/><text x="24" y="38" font-size="25" fill="#16324f" text-anchor="start" font-weight="700">問23  サブネットマスクのビット列</text><text x="25" y="82" font-size="22" fill="#16324f" text-anchor="start" font-weight="400">先頭24ビット：11111111 11111111 11111111</text><rect x="30" y="108" width="130" height="44" rx="0" fill="#2563a6" stroke="#b7c9dc" stroke-width="2"/><text x="95.0" y="138.0" font-size="20" fill="#fff" text-anchor="middle" font-weight="400">選択肢</text><rect x="160" y="108" width="160" height="44" rx="0" fill="#2563a6" stroke="#b7c9dc" stroke-width="2"/><text x="240.0" y="138.0" font-size="20" fill="#fff" text-anchor="middle" font-weight="400">末尾の値</text><rect x="320" y="108" width="255" height="44" rx="0" fill="#2563a6" stroke="#b7c9dc" stroke-width="2"/><text x="447.5" y="138.0" font-size="20" fill="#fff" text-anchor="middle" font-weight="400">2進数</text><rect x="575" y="108" width="195" height="44" rx="0" fill="#2563a6" stroke="#b7c9dc" stroke-width="2"/><text x="672.5" y="138.0" font-size="20" fill="#fff" text-anchor="middle" font-weight="400">判定</text><rect x="30" y="152" width="130" height="44" rx="0" fill="#fff" stroke="#b7c9dc" stroke-width="2"/><text x="95.0" y="182.0" font-size="20" fill="#16324f" text-anchor="middle" font-weight="400">ア</text><rect x="160" y="152" width="160" height="44" rx="0" fill="#fff" stroke="#b7c9dc" stroke-width="2"/><text x="240.0" y="182.0" font-size="20" fill="#16324f" text-anchor="middle" font-weight="400">1</text><rect x="320" y="152" width="255" height="44" rx="0" fill="#fff" stroke="#b7c9dc" stroke-width="2"/><text x="447.5" y="182.0" font-size="20" fill="#16324f" text-anchor="middle" font-weight="400">00000001</text><rect x="575" y="152" width="195" height="44" rx="0" fill="#fff" stroke="#b7c9dc" stroke-width="2"/><text x="672.5" y="182.0" font-size="20" fill="#16324f" text-anchor="middle" font-weight="400">0の後に1 ×</text><rect x="30" y="196" width="130" height="44" rx="0" fill="#edf4fb" stroke="#b7c9dc" stroke-width="2"/><text x="95.0" y="226.0" font-size="20" fill="#16324f" text-anchor="middle" font-weight="400">イ</text><rect x="160" y="196" width="160" height="44" rx="0" fill="#edf4fb" stroke="#b7c9dc" stroke-width="2"/><text x="240.0" y="226.0" font-size="20" fill="#16324f" text-anchor="middle" font-weight="400">32</text><rect x="320" y="196" width="255" height="44" rx="0" fill="#edf4fb" stroke="#b7c9dc" stroke-width="2"/><text x="447.5" y="226.0" font-size="20" fill="#16324f" text-anchor="middle" font-weight="400">00100000</text><rect x="575" y="196" width="195" height="44" rx="0" fill="#edf4fb" stroke="#b7c9dc" stroke-width="2"/><text x="672.5" y="226.0" font-size="20" fill="#16324f" text-anchor="middle" font-weight="400">0の後に1 ×</text><rect x="30" y="240" width="130" height="44" rx="0" fill="#fff" stroke="#b7c9dc" stroke-width="2"/><text x="95.0" y="270.0" font-size="20" fill="#16324f" text-anchor="middle" font-weight="400">ウ</text><rect x="160" y="240" width="160" height="44" rx="0" fill="#fff" stroke="#b7c9dc" stroke-width="2"/><text x="240.0" y="270.0" font-size="20" fill="#16324f" text-anchor="middle" font-weight="400">64</text><rect x="320" y="240" width="255" height="44" rx="0" fill="#fff" stroke="#b7c9dc" stroke-width="2"/><text x="447.5" y="270.0" font-size="20" fill="#16324f" text-anchor="middle" font-weight="400">01000000</text><rect x="575" y="240" width="195" height="44" rx="0" fill="#fff" stroke="#b7c9dc" stroke-width="2"/><text x="672.5" y="270.0" font-size="20" fill="#16324f" text-anchor="middle" font-weight="400">0の後に1 ×</text><rect x="30" y="284" width="130" height="44" rx="0" fill="#dcf3e9" stroke="#b7c9dc" stroke-width="2"/><text x="95.0" y="314.0" font-size="20" fill="#16324f" text-anchor="middle" font-weight="400">エ</text><rect x="160" y="284" width="160" height="44" rx="0" fill="#dcf3e9" stroke="#b7c9dc" stroke-width="2"/><text x="240.0" y="314.0" font-size="20" fill="#16324f" text-anchor="middle" font-weight="400">128</text><rect x="320" y="284" width="255" height="44" rx="0" fill="#dcf3e9" stroke="#b7c9dc" stroke-width="2"/><text x="447.5" y="314.0" font-size="20" fill="#16324f" text-anchor="middle" font-weight="400">10000000</text><rect x="575" y="284" width="195" height="44" rx="0" fill="#dcf3e9" stroke="#b7c9dc" stroke-width="2"/><text x="672.5" y="314.0" font-size="20" fill="#16324f" text-anchor="middle" font-weight="400">1が連続 ○</text><rect x="20" y="331" width="760" height="48" rx="8" fill="#dcf3e9" stroke="#087f68" stroke-width="2"/><text x="400" y="363" font-size="22" fill="#087f68" text-anchor="middle" font-weight="700">255.255.255.128：1が25個続き、その後は0だけ</text></g></svg>