<svg xmlns="http://www.w3.org/2000/svg" viewBox="0 0 800 430" role="img" aria-labelledby="title26"><title id="title26">問26 CGIの図解</title><defs><marker id="arrow26" markerWidth="8" markerHeight="8" refX="7" refY="4" orient="auto"><path d="M0 0 L8 4 L0 8 Z" fill="#2563a6"/></marker></defs><g font-family="Meiryo, Yu Gothic, sans-serif"><rect x="0" y="0" width="800" height="430" rx="0" fill="#fbfdff" stroke="none" stroke-width="2"/><text x="24" y="38" font-size="25" fill="#16324f" text-anchor="start" font-weight="700">問26  CGI</text><rect x="25" y="75" width="190" height="56" rx="8" fill="#edf4fb" stroke="#2563a6" stroke-width="2"/><text x="120.0" y="111.0" font-size="21" fill="#16324f" text-anchor="middle" font-weight="400">ブラウザ</text><line x1="120" y1="139" x2="120" y2="340" stroke="#2563a6" stroke-width="2" stroke-dasharray="7 5"/><rect x="305" y="75" width="190" height="56" rx="8" fill="#edf4fb" stroke="#2563a6" stroke-width="2"/><text x="400.0" y="111.0" font-size="21" fill="#16324f" text-anchor="middle" font-weight="400">Webサーバ</text><line x1="400" y1="139" x2="400" y2="340" stroke="#2563a6" stroke-width="2" stroke-dasharray="7 5"/><rect x="585" y="75" width="190" height="56" rx="8" fill="#edf4fb" stroke="#2563a6" stroke-width="2"/><text x="680.0" y="111.0" font-size="21" fill="#16324f" text-anchor="middle" font-weight="400">外部プログラム</text><line x1="680" y1="139" x2="680" y2="340" stroke="#2563a6" stroke-width="2" stroke-dasharray="7 5"/><line x1="120" y1="170" x2="400" y2="170" stroke="#2563a6" stroke-width="3" marker-end="url(#arrow26)"/><text x="260.0" y="160" font-size="20" fill="#16324f" text-anchor="middle" font-weight="400">①リクエスト</text><line x1="400" y1="224" x2="680" y2="224" stroke="#2563a6" stroke-width="3" marker-end="url(#arrow26)"/><text x="540.0" y="214" font-size="20" fill="#16324f" text-anchor="middle" font-weight="400">②CGI呼出し</text><line x1="680" y1="278" x2="400" y2="278" stroke="#2563a6" stroke-width="3" marker-end="url(#arrow26)"/><text x="540.0" y="268" font-size="20" fill="#16324f" text-anchor="middle" font-weight="400">③実行結果</text><line x1="400" y1="332" x2="120" y2="332" stroke="#2563a6" stroke-width="3" marker-end="url(#arrow26)"/><text x="260.0" y="322" font-size="20" fill="#16324f" text-anchor="middle" font-weight="400">④HTTP応答</text><rect x="20" y="366" width="760" height="48" rx="8" fill="#dcf3e9" stroke="#087f68" stroke-width="2"/><text x="400" y="398" font-size="22" fill="#087f68" text-anchor="middle" font-weight="700">CGIはWebサーバと外部プログラムを結ぶ仕組み</text></g></svg>