<svg xmlns="http://www.w3.org/2000/svg" viewBox="0 0 800 470" role="img" aria-labelledby="title32"><title id="title32">問32 DNSキャッシュ汚染への対策の図解</title><defs><marker id="arrow32" markerWidth="8" markerHeight="8" refX="7" refY="4" orient="auto"><path d="M0 0 L8 4 L0 8 Z" fill="#2563a6"/></marker></defs><g font-family="Meiryo, Yu Gothic, sans-serif"><rect x="0" y="0" width="800" height="470" rx="0" fill="#fbfdff" stroke="none" stroke-width="2"/><text x="24" y="38" font-size="25" fill="#16324f" text-anchor="start" font-weight="700">問32  DNSキャッシュ汚染への対策</text><rect x="25" y="85" width="440" height="245" rx="8" fill="none" stroke="#087f68" stroke-width="2"/><text x="245" y="115" font-size="23" fill="#087f68" text-anchor="middle" font-weight="400">内部ネットワーク</text><rect x="45" y="171" width="145" height="72" rx="8" fill="#edf4fb" stroke="#2563a6" stroke-width="2"/><text x="117.5" y="215.0" font-size="22" fill="#16324f" text-anchor="middle" font-weight="400">内部端末</text><rect x="300" y="147" width="110" height="95" rx="8" fill="#edf4fb" stroke="#2563a6" stroke-width="2"/><line x1="312" y1="177" x2="397" y2="177" stroke="#2563a6" stroke-width="3"/><line x1="312" y1="207" x2="397" y2="207" stroke="#2563a6" stroke-width="3"/><circle cx="390" cy="162" r="4" fill="#087f68" stroke="#087f68" stroke-width="3"/><text x="355" y="271" font-size="20" fill="#16324f" text-anchor="middle" font-weight="400">キャッシュDNS</text><line x1="193" y1="205" x2="295" y2="194" stroke="#087f68" stroke-width="3" marker-end="url(#arrow32)"/><text x="244" y="266" font-size="20" fill="#087f68" text-anchor="middle" font-weight="400">再帰問合せ ○</text><rect x="580" y="90" width="190" height="70" rx="8" fill="#fff0cc" stroke="#b33b44" stroke-width="2"/><text x="675.0" y="133.0" font-size="22" fill="#16324f" text-anchor="middle" font-weight="400">外部の利用者</text><line x1="580" y1="138" x2="454" y2="186" stroke="#b33b44" stroke-width="3" stroke-dasharray="7 5"/><text x="552" y="197" font-size="22" fill="#b33b44" text-anchor="start" font-weight="400">拒否 ×</text><rect x="580" y="267" width="190" height="70" rx="8" fill="#edf4fb" stroke="#2563a6" stroke-width="2"/><text x="675.0" y="310.0" font-size="22" fill="#16324f" text-anchor="middle" font-weight="400">権威DNS</text><line x1="413" y1="222" x2="573" y2="292" stroke="#2563a6" stroke-width="3" marker-end="url(#arrow32)"/><text x="520" y="372" font-size="21" fill="#16324f" text-anchor="middle" font-weight="400">正規の名前解決は可能</text><rect x="20" y="406" width="760" height="48" rx="8" fill="#dcf3e9" stroke="#087f68" stroke-width="2"/><text x="400" y="438" font-size="22" fill="#087f68" text-anchor="middle" font-weight="700">再帰問合せを受ける利用者を内部に限定する：イ</text></g></svg>