<svg xmlns="http://www.w3.org/2000/svg" viewBox="0 0 800 450" role="img" aria-labelledby="title35"><title id="title35">問35 基底クラスと派生クラスの図解</title><defs><marker id="arrow35" markerWidth="8" markerHeight="8" refX="7" refY="4" orient="auto"><path d="M0 0 L8 4 L0 8 Z" fill="#2563a6"/></marker></defs><g font-family="Meiryo, Yu Gothic, sans-serif"><rect x="0" y="0" width="800" height="450" rx="0" fill="#fbfdff" stroke="none" stroke-width="2"/><text x="24" y="38" font-size="25" fill="#16324f" text-anchor="start" font-weight="700">問35  基底クラスと派生クラス</text><rect x="50" y="95" width="245" height="65" rx="8" fill="#edf4fb" stroke="#2563a6" stroke-width="2"/><text x="172.5" y="135.5" font-size="22" fill="#16324f" text-anchor="middle" font-weight="400">図形</text><rect x="50" y="267" width="245" height="65" rx="8" fill="#dcf3e9" stroke="#087f68" stroke-width="2"/><text x="172.5" y="307.5" font-size="22" fill="#16324f" text-anchor="middle" font-weight="400">三角形</text><line x1="171" y1="265" x2="171" y2="230" stroke="#2563a6" stroke-width="3"/><line x1="171" y1="182" x2="171" y2="169" stroke="#2563a6" stroke-width="3"/><path d="M171 157 L155 179 L187 179 Z" fill="white" stroke="#2563a6" stroke-width="3"/><text x="171" y="215" font-size="21" fill="#087f68" text-anchor="middle" font-weight="400">is-a（〜の一種）</text><rect x="470" y="95" width="245" height="65" rx="8" fill="#edf4fb" stroke="#2563a6" stroke-width="2"/><text x="592.5" y="135.5" font-size="22" fill="#16324f" text-anchor="middle" font-weight="400">自動車</text><rect x="470" y="267" width="245" height="65" rx="8" fill="#fff0cc" stroke="#b33b44" stroke-width="2"/><text x="592.5" y="307.5" font-size="22" fill="#16324f" text-anchor="middle" font-weight="400">エンジン</text><line x1="592" y1="160" x2="592" y2="185" stroke="#2563a6" stroke-width="3"/><line x1="592" y1="229" x2="592" y2="265" stroke="#2563a6" stroke-width="3"/><text x="592" y="215" font-size="21" fill="#b33b44" text-anchor="middle" font-weight="400">has-a（部分を持つ）</text><rect x="20" y="386" width="760" height="48" rx="8" fill="#dcf3e9" stroke="#087f68" stroke-width="2"/><text x="400" y="418" font-size="22" fill="#087f68" text-anchor="middle" font-weight="700">「三角形は図形である」→ 基底クラスと派生クラス</text></g></svg>