<svg xmlns="http://www.w3.org/2000/svg" viewBox="0 0 800 440" role="img" aria-labelledby="title38"><title id="title38">問38 マッシュアップの図解</title><defs><marker id="arrow38" markerWidth="8" markerHeight="8" refX="7" refY="4" orient="auto"><path d="M0 0 L8 4 L0 8 Z" fill="#2563a6"/></marker></defs><g font-family="Meiryo, Yu Gothic, sans-serif"><rect x="0" y="0" width="800" height="440" rx="0" fill="#fbfdff" stroke="none" stroke-width="2"/><text x="24" y="38" font-size="25" fill="#16324f" text-anchor="start" font-weight="700">問38  マッシュアップ</text><rect x="25" y="80" width="200" height="70" rx="8" fill="#edf4fb" stroke="#2563a6" stroke-width="2"/><text x="125.0" y="123.0" font-size="22" fill="#16324f" text-anchor="middle" font-weight="400">地図API</text><rect x="25" y="229" width="200" height="70" rx="8" fill="#edf4fb" stroke="#2563a6" stroke-width="2"/><text x="125.0" y="272.0" font-size="22" fill="#16324f" text-anchor="middle" font-weight="400">店舗情報API</text><line x1="225" y1="115" x2="344" y2="198" stroke="#2563a6" stroke-width="3" marker-end="url(#arrow38)"/><line x1="225" y1="263" x2="344" y2="221" stroke="#2563a6" stroke-width="3" marker-end="url(#arrow38)"/><rect x="365" y="80" width="385" height="252" rx="8" fill="#e9f4ec" stroke="#087f68" stroke-width="2"/><line x1="367" y1="135" x2="748" y2="135" stroke="white" stroke-width="12"/><line x1="367" y1="219" x2="748" y2="219" stroke="white" stroke-width="12"/><line x1="367" y1="295" x2="748" y2="295" stroke="white" stroke-width="12"/><line x1="440" y1="82" x2="440" y2="330" stroke="white" stroke-width="14"/><line x1="572" y1="82" x2="572" y2="330" stroke="white" stroke-width="14"/><line x1="670" y1="82" x2="670" y2="330" stroke="white" stroke-width="14"/><circle cx="437" cy="136" r="12" fill="#b33b44" stroke="#b33b44" stroke-width="3"/><text x="454" y="122" font-size="21" fill="#16324f" text-anchor="start" font-weight="400">店A</text><circle cx="574" cy="220" r="12" fill="#b33b44" stroke="#b33b44" stroke-width="3"/><text x="591" y="206" font-size="21" fill="#16324f" text-anchor="start" font-weight="400">店B</text><circle cx="670" cy="290" r="12" fill="#b33b44" stroke="#b33b44" stroke-width="3"/><text x="687" y="276" font-size="21" fill="#16324f" text-anchor="start" font-weight="400">店C</text><text x="560" y="371" font-size="22" fill="#087f68" text-anchor="middle" font-weight="400">地図上に店を表示する新サービス</text><rect x="20" y="376" width="760" height="48" rx="8" fill="#dcf3e9" stroke="#087f68" stroke-width="2"/><text x="400" y="408" font-size="22" fill="#087f68" text-anchor="middle" font-weight="700">別々の公開サービスを組み合わせる → マッシュアップ</text></g></svg>