<svg xmlns="http://www.w3.org/2000/svg" viewBox="0 0 800 430" role="img" aria-labelledby="title53"><title id="title53">問53 IoTの図解</title><defs><marker id="arrow53" markerWidth="8" markerHeight="8" refX="7" refY="4" orient="auto"><path d="M0 0 L8 4 L0 8 Z" fill="#2563a6"/></marker></defs><g font-family="Meiryo, Yu Gothic, sans-serif"><rect x="0" y="0" width="800" height="430" rx="0" fill="#fbfdff" stroke="none" stroke-width="2"/><text x="24" y="38" font-size="25" fill="#16324f" text-anchor="start" font-weight="700">問53  IoT</text><rect x="25" y="90" width="180" height="70" rx="8" fill="#edf4fb" stroke="#2563a6" stroke-width="2"/><text x="115.0" y="133.0" font-size="22" fill="#16324f" text-anchor="middle" font-weight="400">温度センサ</text><line x1="205" y1="125" x2="300" y2="125" stroke="#2563a6" stroke-width="3" marker-end="url(#arrow53)"/><rect x="25" y="230" width="180" height="70" rx="8" fill="#edf4fb" stroke="#2563a6" stroke-width="2"/><text x="115.0" y="273.0" font-size="22" fill="#16324f" text-anchor="middle" font-weight="400">設備・機器</text><line x1="205" y1="265" x2="300" y2="265" stroke="#2563a6" stroke-width="3" marker-end="url(#arrow53)"/><rect x="305" y="90" width="220" height="70" rx="8" fill="#dcf3e9" stroke="#087f68" stroke-width="2"/><text x="415.0" y="133.0" font-size="22" fill="#16324f" text-anchor="middle" font-weight="400">閉域ネットワーク</text><rect x="305" y="230" width="220" height="70" rx="8" fill="#edf4fb" stroke="#2563a6" stroke-width="2"/><text x="415.0" y="273.0" font-size="22" fill="#16324f" text-anchor="middle" font-weight="400">インターネット</text><line x1="526" y1="125" x2="611" y2="175" stroke="#2563a6" stroke-width="3" marker-end="url(#arrow53)"/><line x1="526" y1="265" x2="611" y2="228" stroke="#2563a6" stroke-width="3" marker-end="url(#arrow53)"/><rect x="625" y="152" width="110" height="95" rx="8" fill="#edf4fb" stroke="#2563a6" stroke-width="2"/><line x1="637" y1="182" x2="722" y2="182" stroke="#2563a6" stroke-width="3"/><line x1="637" y1="212" x2="722" y2="212" stroke="#2563a6" stroke-width="3"/><circle cx="715" cy="167" r="4" fill="#087f68" stroke="#087f68" stroke-width="3"/><text x="680" y="276" font-size="20" fill="#16324f" text-anchor="middle" font-weight="400">収集・監視</text><text x="400" y="346" font-size="23" fill="#16324f" text-anchor="middle" font-weight="400">モノの情報をネットワークで利用する</text><rect x="20" y="366" width="760" height="48" rx="8" fill="#dcf3e9" stroke="#087f68" stroke-width="2"/><text x="400" y="398" font-size="22" fill="#087f68" text-anchor="middle" font-weight="700">IoTは閉域網も含む。全ての機器で自律分析は不要</text></g></svg>