<svg xmlns="http://www.w3.org/2000/svg" viewBox="0 0 800 470" role="img" aria-labelledby="title55"><title id="title55">問55 クラウドソーシングの図解</title><defs><marker id="arrow55" markerWidth="8" markerHeight="8" refX="7" refY="4" orient="auto"><path d="M0 0 L8 4 L0 8 Z" fill="#2563a6"/></marker></defs><g font-family="Meiryo, Yu Gothic, sans-serif"><rect x="0" y="0" width="800" height="470" rx="0" fill="#fbfdff" stroke="none" stroke-width="2"/><text x="24" y="38" font-size="25" fill="#16324f" text-anchor="start" font-weight="700">問55  クラウドソーシング</text><rect x="25" y="159" width="175" height="85" rx="8" fill="#edf4fb" stroke="#2563a6" stroke-width="2"/><text x="112.5" y="194.5" font-size="22" fill="#16324f" text-anchor="middle" font-weight="400">発注者</text><text x="112.5" y="224.5" font-size="22" fill="#16324f" text-anchor="middle" font-weight="400">ロゴ制作依頼</text><rect x="280" y="159" width="230" height="85" rx="8" fill="#edf4fb" stroke="#2563a6" stroke-width="2"/><text x="395.0" y="194.5" font-size="22" fill="#16324f" text-anchor="middle" font-weight="400">ネットで公開</text><text x="395.0" y="224.5" font-size="22" fill="#16324f" text-anchor="middle" font-weight="400">仕事の募集</text><line x1="205" y1="201" x2="275" y2="201" stroke="#2563a6" stroke-width="3" marker-end="url(#arrow55)"/><circle cx="686" cy="65" r="15" fill="#fff" stroke="#2563a6" stroke-width="3"/><path d="M661 123 V100 Q686 73 711 100 V123" fill="#edf4fb" stroke="#2563a6" stroke-width="3"/><text x="686" y="153" font-size="20" fill="#16324f" text-anchor="middle" font-weight="400">応募A</text><line x1="515" y1="201" x2="644" y2="100" stroke="#2563a6" stroke-width="3" marker-end="url(#arrow55)"/><circle cx="686" cy="187" r="15" fill="#fff" stroke="#2563a6" stroke-width="3"/><path d="M661 245 V222 Q686 195 711 222 V245" fill="#edf4fb" stroke="#2563a6" stroke-width="3"/><text x="686" y="275" font-size="20" fill="#16324f" text-anchor="middle" font-weight="400">応募B</text><line x1="515" y1="201" x2="644" y2="222" stroke="#2563a6" stroke-width="3" marker-end="url(#arrow55)"/><circle cx="686" cy="309" r="15" fill="#fff" stroke="#2563a6" stroke-width="3"/><path d="M661 367 V344 Q686 317 711 344 V367" fill="#edf4fb" stroke="#2563a6" stroke-width="3"/><text x="686" y="397" font-size="20" fill="#16324f" text-anchor="middle" font-weight="400">応募C</text><line x1="515" y1="201" x2="644" y2="344" stroke="#2563a6" stroke-width="3" marker-end="url(#arrow55)"/><rect x="20" y="406" width="760" height="48" rx="8" fill="#dcf3e9" stroke="#087f68" stroke-width="2"/><text x="400" y="438" font-size="22" fill="#087f68" text-anchor="middle" font-weight="700">不特定多数へ仕事を募集・委託する → クラウドソーシング</text></g></svg>